<?xml version="1.0" encoding="utf-8"?>
<!-- Generator: Adobe Illustrator 23.0.1, SVG Export Plug-In . SVG Version: 6.00 Build 0)  -->
<svg version="1.1" id="outline" xmlns="http://www.w3.org/2000/svg" xmlns:xlink="http://www.w3.org/1999/xlink" x="0px" y="0px"
	 viewBox="0 0 670 777" enable-background="new 0 0 670 777" xml:space="preserve">
<g>
	<g opacity="0.5">
		<path d="M662,778c-169.33,0-338.67,0-508,0c-1.41-11.73,9.77-22.49,2.71-34.63c-9.14-15.7-10.74-33.61-15.06-50.73
			c-0.29-1.16-1.01-2.21-1.53-3.3c-0.58,1.2-1.43,2.34-1.69,3.6c-5.88,28.67-9.96,57.79-21.43,85.05c-38.33,0-76.67,0-115,0
			c-0.13-2.15-0.75-4.41-0.32-6.45c5.89-28.34,12.85-56.49,17.72-85c10.88-63.8,19.46-128.02,31.53-191.59
			c5.99-31.53,25.88-58.99,35.43-89.17c12.09-38.2,51.17-76.98,91.8-77.94c28.14-0.66,45.75-12.29,55.21-39.38
			c7.11-20.36,10.81-41.8,18.27-61.55c14.69-38.88,32.62-76.68,51.38-113.83c18.63-36.9,42.49-70.27,80.81-89.8
			C415.26,7.28,448.25,3.52,483.86,4.33c35.31,0.81,62.81,13.22,71.02,47.4c4.05,16.86-0.43,36.06,18.99,46.78
			c2.07,1.14,2.27,8.17,1.28,11.93c-7.42,28.24-10.37,56.66-6.91,85.85c3.69,31.08-19.27,49.08-36.59,69.22
			c-8.08,9.4-10.09,16.6,0.1,24.45c20.45,15.76,27.85,37.44,31.3,62.07c1.35,9.65-3.57,25.23,8.43,28.43
			c29.35,7.83,56.43,19.03,72.18,45.73c21.89,37.1,21.89,80.13,26.28,121.36c4.67,43.79-4.78,87.33-8.18,130.93
			C659.16,711.84,662.63,744.84,662,778z" fill="fff"/>
	</g>
</g>
</svg>
